ISO-10303-21;
HEADER;
FILE_DESCRIPTION(('FreeCAD Model'),'2;1');
FILE_NAME('Open CASCADE Shape Model','2026-04-13T17:52:37',(''),(''),
  'Open CASCADE STEP processor 7.8','FreeCAD','Unknown');
FILE_SCHEMA(('AUTOMOTIVE_DESIGN { 1 0 10303 214 1 1 1 1 }'));
ENDSEC;
DATA;
#1 = APPLICATION_PROTOCOL_DEFINITION('international standard',
  'automotive_design',2000,#2);
#2 = APPLICATION_CONTEXT(
  'core data for automotive mechanical design processes');
#3 = SHAPE_DEFINITION_REPRESENTATION(#4,#10);
#4 = PRODUCT_DEFINITION_SHAPE('','',#5);
#5 = PRODUCT_DEFINITION('design','',#6,#9);
#6 = PRODUCT_DEFINITION_FORMATION('','',#7);
#7 = PRODUCT('3.12" OLED Display v5','3.12" OLED Display v5','',(#8));
#8 = PRODUCT_CONTEXT('',#2,'mechanical');
#9 = PRODUCT_DEFINITION_CONTEXT('part definition',#2,'design');
#10 = SHAPE_REPRESENTATION('',(#11,#15,#19),#23);
#11 = AXIS2_PLACEMENT_3D('',#12,#13,#14);
#12 = CARTESIAN_POINT('',(0.,0.,0.));
#13 = DIRECTION('',(0.,0.,1.));
#14 = DIRECTION('',(1.,0.,-0.));
#15 = AXIS2_PLACEMENT_3D('',#16,#17,#18);
#16 = CARTESIAN_POINT('',(0.,0.,0.));
#17 = DIRECTION('',(0.,0.,1.));
#18 = DIRECTION('',(1.,0.,0.));
#19 = AXIS2_PLACEMENT_3D('',#20,#21,#22);
#20 = CARTESIAN_POINT('',(0.,0.,0.));
#21 = DIRECTION('',(0.,0.,1.));
#22 = DIRECTION('',(1.,0.,0.));
#23 = ( GEOMETRIC_REPRESENTATION_CONTEXT(3) 
GLOBAL_UNCERTAINTY_ASSIGNED_CONTEXT((#27)) GLOBAL_UNIT_ASSIGNED_CONTEXT(
(#24,#25,#26)) REPRESENTATION_CONTEXT('Context #1',
  '3D Context with UNIT and UNCERTAINTY') );
#24 = ( LENGTH_UNIT() NAMED_UNIT(*) SI_UNIT(.MILLI.,.METRE.) );
#25 = ( NAMED_UNIT(*) PLANE_ANGLE_UNIT() SI_UNIT($,.RADIAN.) );
#26 = ( NAMED_UNIT(*) SI_UNIT($,.STERADIAN.) SOLID_ANGLE_UNIT() );
#27 = UNCERTAINTY_MEASURE_WITH_UNIT(LENGTH_MEASURE(1.E-03),#24,
  'distance_accuracy_value','confusion accuracy');
#28 = PRODUCT_RELATED_PRODUCT_CATEGORY('part',$,(#7));
#29 = SHAPE_DEFINITION_REPRESENTATION(#30,#36);
#30 = PRODUCT_DEFINITION_SHAPE('','',#31);
#31 = PRODUCT_DEFINITION('design','',#32,#35);
#32 = PRODUCT_DEFINITION_FORMATION('','',#33);
#33 = PRODUCT('OLED Display','OLED Display','',(#34));
#34 = PRODUCT_CONTEXT('',#2,'mechanical');
#35 = PRODUCT_DEFINITION_CONTEXT('part definition',#2,'design');
#36 = ADVANCED_BREP_SHAPE_REPRESENTATION('',(#11,#37),#187);
#37 = MANIFOLD_SOLID_BREP('',#38);
#38 = CLOSED_SHELL('',(#39,#79,#110,#141,#163,#175));
#39 = ADVANCED_FACE('',(#40),#74,.T.);
#40 = FACE_BOUND('',#41,.T.);
#41 = EDGE_LOOP('',(#42,#52,#60,#68));
#42 = ORIENTED_EDGE('',*,*,#43,.F.);
#43 = EDGE_CURVE('',#44,#46,#48,.T.);
#44 = VERTEX_POINT('',#45);
#45 = CARTESIAN_POINT('',(6.25,-2.4,-2.75));
#46 = VERTEX_POINT('',#47);
#47 = CARTESIAN_POINT('',(6.25,-2.4,-30.75));
#48 = LINE('',#49,#50);
#49 = CARTESIAN_POINT('',(6.25,-2.4,-9.75));
#50 = VECTOR('',#51,1.);
#51 = DIRECTION('',(0.,0.,-1.));
#52 = ORIENTED_EDGE('',*,*,#53,.F.);
#53 = EDGE_CURVE('',#54,#44,#56,.T.);
#54 = VERTEX_POINT('',#55);
#55 = CARTESIAN_POINT('',(6.25,0.,-2.75));
#56 = LINE('',#57,#58);
#57 = CARTESIAN_POINT('',(6.25,0.,-2.75));
#58 = VECTOR('',#59,1.);
#59 = DIRECTION('',(0.,-1.,0.));
#60 = ORIENTED_EDGE('',*,*,#61,.F.);
#61 = EDGE_CURVE('',#62,#54,#64,.T.);
#62 = VERTEX_POINT('',#63);
#63 = CARTESIAN_POINT('',(6.25,0.,-30.75));
#64 = LINE('',#65,#66);
#65 = CARTESIAN_POINT('',(6.25,0.,-30.75));
#66 = VECTOR('',#67,1.);
#67 = DIRECTION('',(0.,0.,1.));
#68 = ORIENTED_EDGE('',*,*,#69,.T.);
#69 = EDGE_CURVE('',#62,#46,#70,.T.);
#70 = LINE('',#71,#72);
#71 = CARTESIAN_POINT('',(6.25,0.,-30.75));
#72 = VECTOR('',#73,1.);
#73 = DIRECTION('',(0.,-1.,0.));
#74 = PLANE('',#75);
#75 = AXIS2_PLACEMENT_3D('',#76,#77,#78);
#76 = CARTESIAN_POINT('',(6.25,0.,-2.75));
#77 = DIRECTION('',(-1.,0.,0.));
#78 = DIRECTION('',(0.,0.,-1.));
#79 = ADVANCED_FACE('',(#80),#105,.T.);
#80 = FACE_BOUND('',#81,.T.);
#81 = EDGE_LOOP('',(#82,#90,#98,#104));
#82 = ORIENTED_EDGE('',*,*,#83,.F.);
#83 = EDGE_CURVE('',#84,#44,#86,.T.);
#84 = VERTEX_POINT('',#85);
#85 = CARTESIAN_POINT('',(94.25,-2.4,-2.75));
#86 = LINE('',#87,#88);
#87 = CARTESIAN_POINT('',(72.25,-2.4,-2.75));
#88 = VECTOR('',#89,1.);
#89 = DIRECTION('',(-1.,0.,0.));
#90 = ORIENTED_EDGE('',*,*,#91,.F.);
#91 = EDGE_CURVE('',#92,#84,#94,.T.);
#92 = VERTEX_POINT('',#93);
#93 = CARTESIAN_POINT('',(94.25,0.,-2.75));
#94 = LINE('',#95,#96);
#95 = CARTESIAN_POINT('',(94.25,0.,-2.75));
#96 = VECTOR('',#97,1.);
#97 = DIRECTION('',(0.,-1.,0.));
#98 = ORIENTED_EDGE('',*,*,#99,.F.);
#99 = EDGE_CURVE('',#54,#92,#100,.T.);
#100 = LINE('',#101,#102);
#101 = CARTESIAN_POINT('',(6.25,0.,-2.75));
#102 = VECTOR('',#103,1.);
#103 = DIRECTION('',(1.,0.,0.));
#104 = ORIENTED_EDGE('',*,*,#53,.T.);
#105 = PLANE('',#106);
#106 = AXIS2_PLACEMENT_3D('',#107,#108,#109);
#107 = CARTESIAN_POINT('',(94.25,0.,-2.75));
#108 = DIRECTION('',(0.,0.,1.));
#109 = DIRECTION('',(-1.,0.,0.));
#110 = ADVANCED_FACE('',(#111),#136,.T.);
#111 = FACE_BOUND('',#112,.T.);
#112 = EDGE_LOOP('',(#113,#121,#129,#135));
#113 = ORIENTED_EDGE('',*,*,#114,.F.);
#114 = EDGE_CURVE('',#115,#84,#117,.T.);
#115 = VERTEX_POINT('',#116);
#116 = CARTESIAN_POINT('',(94.25,-2.4,-30.75));
#117 = LINE('',#118,#119);
#118 = CARTESIAN_POINT('',(94.25,-2.4,-23.75));
#119 = VECTOR('',#120,1.);
#120 = DIRECTION('',(0.,0.,1.));
#121 = ORIENTED_EDGE('',*,*,#122,.F.);
#122 = EDGE_CURVE('',#123,#115,#125,.T.);
#123 = VERTEX_POINT('',#124);
#124 = CARTESIAN_POINT('',(94.25,0.,-30.75));
#125 = LINE('',#126,#127);
#126 = CARTESIAN_POINT('',(94.25,0.,-30.75));
#127 = VECTOR('',#128,1.);
#128 = DIRECTION('',(0.,-1.,0.));
#129 = ORIENTED_EDGE('',*,*,#130,.F.);
#130 = EDGE_CURVE('',#92,#123,#131,.T.);
#131 = LINE('',#132,#133);
#132 = CARTESIAN_POINT('',(94.25,0.,-2.75));
#133 = VECTOR('',#134,1.);
#134 = DIRECTION('',(0.,0.,-1.));
#135 = ORIENTED_EDGE('',*,*,#91,.T.);
#136 = PLANE('',#137);
#137 = AXIS2_PLACEMENT_3D('',#138,#139,#140);
#138 = CARTESIAN_POINT('',(94.25,0.,-30.75));
#139 = DIRECTION('',(1.,0.,0.));
#140 = DIRECTION('',(0.,0.,1.));
#141 = ADVANCED_FACE('',(#142),#158,.T.);
#142 = FACE_BOUND('',#143,.T.);
#143 = EDGE_LOOP('',(#144,#150,#151,#157));
#144 = ORIENTED_EDGE('',*,*,#145,.F.);
#145 = EDGE_CURVE('',#46,#115,#146,.T.);
#146 = LINE('',#147,#148);
#147 = CARTESIAN_POINT('',(28.25,-2.4,-30.75));
#148 = VECTOR('',#149,1.);
#149 = DIRECTION('',(1.,0.,0.));
#150 = ORIENTED_EDGE('',*,*,#69,.F.);
#151 = ORIENTED_EDGE('',*,*,#152,.F.);
#152 = EDGE_CURVE('',#123,#62,#153,.T.);
#153 = LINE('',#154,#155);
#154 = CARTESIAN_POINT('',(94.25,0.,-30.75));
#155 = VECTOR('',#156,1.);
#156 = DIRECTION('',(-1.,0.,0.));
#157 = ORIENTED_EDGE('',*,*,#122,.T.);
#158 = PLANE('',#159);
#159 = AXIS2_PLACEMENT_3D('',#160,#161,#162);
#160 = CARTESIAN_POINT('',(6.25,0.,-30.75));
#161 = DIRECTION('',(0.,0.,-1.));
#162 = DIRECTION('',(1.,0.,0.));
#163 = ADVANCED_FACE('',(#164),#170,.T.);
#164 = FACE_BOUND('',#165,.T.);
#165 = EDGE_LOOP('',(#166,#167,#168,#169));
#166 = ORIENTED_EDGE('',*,*,#61,.T.);
#167 = ORIENTED_EDGE('',*,*,#99,.T.);
#168 = ORIENTED_EDGE('',*,*,#130,.T.);
#169 = ORIENTED_EDGE('',*,*,#152,.T.);
#170 = PLANE('',#171);
#171 = AXIS2_PLACEMENT_3D('',#172,#173,#174);
#172 = CARTESIAN_POINT('',(50.25,0.,-16.75));
#173 = DIRECTION('',(0.,1.,0.));
#174 = DIRECTION('',(1.,0.,0.));
#175 = ADVANCED_FACE('',(#176),#182,.F.);
#176 = FACE_BOUND('',#177,.T.);
#177 = EDGE_LOOP('',(#178,#179,#180,#181));
#178 = ORIENTED_EDGE('',*,*,#83,.T.);
#179 = ORIENTED_EDGE('',*,*,#43,.T.);
#180 = ORIENTED_EDGE('',*,*,#145,.T.);
#181 = ORIENTED_EDGE('',*,*,#114,.T.);
#182 = PLANE('',#183);
#183 = AXIS2_PLACEMENT_3D('',#184,#185,#186);
#184 = CARTESIAN_POINT('',(50.25,-2.4,-16.75));
#185 = DIRECTION('',(0.,1.,0.));
#186 = DIRECTION('',(0.,-0.,1.));
#187 = ( GEOMETRIC_REPRESENTATION_CONTEXT(3) 
GLOBAL_UNCERTAINTY_ASSIGNED_CONTEXT((#191)) GLOBAL_UNIT_ASSIGNED_CONTEXT
((#188,#189,#190)) REPRESENTATION_CONTEXT('Context #1',
  '3D Context with UNIT and UNCERTAINTY') );
#188 = ( LENGTH_UNIT() NAMED_UNIT(*) SI_UNIT(.MILLI.,.METRE.) );
#189 = ( NAMED_UNIT(*) PLANE_ANGLE_UNIT() SI_UNIT($,.RADIAN.) );
#190 = ( NAMED_UNIT(*) SI_UNIT($,.STERADIAN.) SOLID_ANGLE_UNIT() );
#191 = UNCERTAINTY_MEASURE_WITH_UNIT(LENGTH_MEASURE(1.E-07),#188,
  'distance_accuracy_value','confusion accuracy');
#192 = CONTEXT_DEPENDENT_SHAPE_REPRESENTATION(#193,#195);
#193 = ( REPRESENTATION_RELATIONSHIP('','',#36,#10) 
REPRESENTATION_RELATIONSHIP_WITH_TRANSFORMATION(#194) 
SHAPE_REPRESENTATION_RELATIONSHIP() );
#194 = ITEM_DEFINED_TRANSFORMATION('','',#11,#15);
#195 = PRODUCT_DEFINITION_SHAPE('Placement','Placement of an item',#196
  );
#196 = NEXT_ASSEMBLY_USAGE_OCCURRENCE('1','OLED Display','',#5,#31,$);
#197 = PRODUCT_RELATED_PRODUCT_CATEGORY('part',$,(#33));
#198 = SHAPE_DEFINITION_REPRESENTATION(#199,#205);
#199 = PRODUCT_DEFINITION_SHAPE('','',#200);
#200 = PRODUCT_DEFINITION('design','',#201,#204);
#201 = PRODUCT_DEFINITION_FORMATION('','',#202);
#202 = PRODUCT('Electrical components','Electrical components','',(#203)
  );
#203 = PRODUCT_CONTEXT('',#2,'mechanical');
#204 = PRODUCT_DEFINITION_CONTEXT('part definition',#2,'design');
#205 = SHAPE_REPRESENTATION('',(#11,#206),#210);
#206 = AXIS2_PLACEMENT_3D('',#207,#208,#209);
#207 = CARTESIAN_POINT('',(0.,0.,0.));
#208 = DIRECTION('',(0.,0.,1.));
#209 = DIRECTION('',(1.,0.,0.));
#210 = ( GEOMETRIC_REPRESENTATION_CONTEXT(3) 
GLOBAL_UNCERTAINTY_ASSIGNED_CONTEXT((#214)) GLOBAL_UNIT_ASSIGNED_CONTEXT
((#211,#212,#213)) REPRESENTATION_CONTEXT('Context #1',
  '3D Context with UNIT and UNCERTAINTY') );
#211 = ( LENGTH_UNIT() NAMED_UNIT(*) SI_UNIT(.MILLI.,.METRE.) );
#212 = ( NAMED_UNIT(*) PLANE_ANGLE_UNIT() SI_UNIT($,.RADIAN.) );
#213 = ( NAMED_UNIT(*) SI_UNIT($,.STERADIAN.) SOLID_ANGLE_UNIT() );
#214 = UNCERTAINTY_MEASURE_WITH_UNIT(LENGTH_MEASURE(1.E-03),#211,
  'distance_accuracy_value','confusion accuracy');
#215 = CONTEXT_DEPENDENT_SHAPE_REPRESENTATION(#216,#218);
#216 = ( REPRESENTATION_RELATIONSHIP('','',#205,#10) 
REPRESENTATION_RELATIONSHIP_WITH_TRANSFORMATION(#217) 
SHAPE_REPRESENTATION_RELATIONSHIP() );
#217 = ITEM_DEFINED_TRANSFORMATION('','',#11,#19);
#218 = PRODUCT_DEFINITION_SHAPE('Placement','Placement of an item',#219
  );
#219 = NEXT_ASSEMBLY_USAGE_OCCURRENCE('3','Electrical components','',#5,
  #200,$);
#220 = PRODUCT_RELATED_PRODUCT_CATEGORY('part',$,(#202));
#221 = SHAPE_DEFINITION_REPRESENTATION(#222,#228);
#222 = PRODUCT_DEFINITION_SHAPE('','',#223);
#223 = PRODUCT_DEFINITION('design','',#224,#227);
#224 = PRODUCT_DEFINITION_FORMATION('','',#225);
#225 = PRODUCT('Flexwire','Flexwire','',(#226));
#226 = PRODUCT_CONTEXT('',#2,'mechanical');
#227 = PRODUCT_DEFINITION_CONTEXT('part definition',#2,'design');
#228 = ADVANCED_BREP_SHAPE_REPRESENTATION('',(#11,#229),#813);
#229 = MANIFOLD_SOLID_BREP('',#230);
#230 = CLOSED_SHELL('',(#231,#291,#330,#390,#423,#480,#524,#625,#669,
    #700,#725,#743,#760,#777));
#231 = ADVANCED_FACE('',(#232),#286,.F.);
#232 = FACE_BOUND('',#233,.F.);
#233 = EDGE_LOOP('',(#234,#244,#262,#270));
#234 = ORIENTED_EDGE('',*,*,#235,.F.);
#235 = EDGE_CURVE('',#236,#238,#240,.T.);
#236 = VERTEX_POINT('',#237);
#237 = CARTESIAN_POINT('',(57.689072978097,2.393078143368,
    -21.33078502777));
#238 = VERTEX_POINT('',#239);
#239 = CARTESIAN_POINT('',(57.689072978096,2.493079889539,
    -21.33078502777));
#240 = LINE('',#241,#242);
#241 = CARTESIAN_POINT('',(57.689072978063,2.5,-21.33078502776));
#242 = VECTOR('',#243,1.);
#243 = DIRECTION('',(0.,1.,0.));
#244 = ORIENTED_EDGE('',*,*,#245,.F.);
#245 = EDGE_CURVE('',#246,#236,#248,.T.);
#246 = VERTEX_POINT('',#247);
#247 = CARTESIAN_POINT('',(57.5,2.394425413071,-21.08832286994));
#248 = B_SPLINE_CURVE_WITH_KNOTS('',3,(#249,#250,#251,#252,#253,#254,
    #255,#256,#257,#258,#259,#260,#261),.UNSPECIFIED.,.F.,.F.,(4,3,3,3,4
    ),(-3.319288976778E-02,-2.394419794737E-02,-1.516672209996E-02,
    -7.275836277028E-03,-1.393312924302E-08),.UNSPECIFIED.);
#249 = CARTESIAN_POINT('',(57.5,2.395115976472,-21.08401398299));
#250 = CARTESIAN_POINT('',(57.500000000006,2.394970669263,
    -21.11475533644));
#251 = CARTESIAN_POINT('',(57.50570240205,2.39482257139,-21.14523308275)
  );
#252 = CARTESIAN_POINT('',(57.516818874411,2.394679845342,
    -21.17390623438));
#253 = CARTESIAN_POINT('',(57.527368968364,2.39454439111,-21.20111850405
    ));
#254 = CARTESIAN_POINT('',(57.542628250466,2.394415974602,-21.2262739945
    ));
#255 = CARTESIAN_POINT('',(57.561900783903,2.394302049284,
    -21.24822535615));
#256 = CARTESIAN_POINT('',(57.579226648823,2.394199631266,-21.2679594678
    ));
#257 = CARTESIAN_POINT('',(57.599567703133,2.394110324066,
    -21.28484403841));
#258 = CARTESIAN_POINT('',(57.622172250236,2.394038773494,
    -21.29825500216));
#259 = CARTESIAN_POINT('',(57.643014861899,2.393972800008,-21.3106206341
    ));
#260 = CARTESIAN_POINT('',(57.665551515165,2.393922676468,
    -21.31989640051));
#261 = CARTESIAN_POINT('',(57.689072978097,2.393890754511,-21.3257903205
    ));
#262 = ORIENTED_EDGE('',*,*,#263,.F.);
#263 = EDGE_CURVE('',#264,#246,#266,.T.);
#264 = VERTEX_POINT('',#265);
#265 = CARTESIAN_POINT('',(57.5,2.494426769421,-21.08832286994));
#266 = LINE('',#267,#268);
#267 = CARTESIAN_POINT('',(57.5,2.5,-21.08832286989));
#268 = VECTOR('',#269,1.);
#269 = DIRECTION('',(0.,-1.,0.));
#270 = ORIENTED_EDGE('',*,*,#271,.F.);
#271 = EDGE_CURVE('',#238,#264,#272,.T.);
#272 = B_SPLINE_CURVE_WITH_KNOTS('',3,(#273,#274,#275,#276,#277,#278,
    #279,#280,#281,#282,#283,#284,#285),.UNSPECIFIED.,.F.,.F.,(4,3,3,3,4
    ),(-3.319814774353E-02,-2.715585607669E-02,-1.933865999125E-02,
    -9.661857806668E-03,0.),.UNSPECIFIED.);
#273 = CARTESIAN_POINT('',(57.689072978097,2.493079889539,
    -21.33078502777));
#274 = CARTESIAN_POINT('',(57.66953931222,2.493108892708,-21.3258765171)
  );
#275 = CARTESIAN_POINT('',(57.650670227073,2.493151650053,
    -21.31862539185));
#276 = CARTESIAN_POINT('',(57.632876425922,2.493206800335,
    -21.30918950022));
#277 = CARTESIAN_POINT('',(57.609855750924,2.493278150842,
    -21.29698184473));
#278 = CARTESIAN_POINT('',(57.588884605959,2.493369460224,
    -21.28124980426));
#279 = CARTESIAN_POINT('',(57.570723721822,2.493476110416,
    -21.26256412816));
#280 = CARTESIAN_POINT('',(57.548242606935,2.493608131258,
    -21.23943338033));
#281 = CARTESIAN_POINT('',(57.530449143681,2.493761330877,-21.2121689218
    ));
#282 = CARTESIAN_POINT('',(57.5183268434,2.493924978301,-21.18227790441)
  );
#283 = CARTESIAN_POINT('',(57.506223264203,2.494088372996,
    -21.15243304923));
#284 = CARTESIAN_POINT('',(57.5,2.494259053286,-21.12052862588));
#285 = CARTESIAN_POINT('',(57.5,2.494426769422,-21.08832286989));
#286 = CYLINDRICAL_SURFACE('',#287,0.25);
#287 = AXIS2_PLACEMENT_3D('',#288,#289,#290);
#288 = CARTESIAN_POINT('',(57.75,2.5,-21.08832286989));
#289 = DIRECTION('',(0.,-1.,0.));
#290 = DIRECTION('',(-0.78857722759,-0.,-0.61493573333));
#291 = ADVANCED_FACE('',(#292),#325,.F.);
#292 = FACE_BOUND('',#293,.T.);
#293 = EDGE_LOOP('',(#294,#295,#310,#318));
#294 = ORIENTED_EDGE('',*,*,#263,.F.);
#295 = ORIENTED_EDGE('',*,*,#296,.F.);
#296 = EDGE_CURVE('',#297,#264,#299,.T.);
#297 = VERTEX_POINT('',#298);
#298 = CARTESIAN_POINT('',(57.5,2.5,-18.78327388794));
#299 = B_SPLINE_CURVE_WITH_KNOTS('',3,(#300,#301,#302,#303,#304,#305,
    #306,#307,#308,#309),.UNSPECIFIED.,.F.,.F.,(4,3,3,4),(-0.29628249536
    ,-0.206913627631,-0.114431642594,-6.896172286243E-02),
  .UNSPECIFIED.);
#300 = CARTESIAN_POINT('',(57.5,2.5,-18.78327388794));
#301 = CARTESIAN_POINT('',(57.5,2.5,-19.10538511703));
#302 = CARTESIAN_POINT('',(57.5,2.499714837814,-19.41958162328));
#303 = CARTESIAN_POINT('',(57.5,2.499142943437,-19.72589321914));
#304 = CARTESIAN_POINT('',(57.5,2.498551127422,-20.04287501767));
#305 = CARTESIAN_POINT('',(57.5,2.497652281515,-20.35141313244));
#306 = CARTESIAN_POINT('',(57.5,2.496441035959,-20.65159677681));
#307 = CARTESIAN_POINT('',(57.5,2.495845511997,-20.79918580411));
#308 = CARTESIAN_POINT('',(57.5,2.49517441406,-20.9447561189));
#309 = CARTESIAN_POINT('',(57.5,2.494426769422,-21.08832286994));
#310 = ORIENTED_EDGE('',*,*,#311,.F.);
#311 = EDGE_CURVE('',#312,#297,#314,.T.);
#312 = VERTEX_POINT('',#313);
#313 = CARTESIAN_POINT('',(57.5,2.4,-18.78327388794));
#314 = LINE('',#315,#316);
#315 = CARTESIAN_POINT('',(57.5,2.5,-18.78327388794));
#316 = VECTOR('',#317,1.);
#317 = DIRECTION('',(0.,1.,0.));
#318 = ORIENTED_EDGE('',*,*,#319,.F.);
#319 = EDGE_CURVE('',#246,#312,#320,.T.);
#320 = B_SPLINE_CURVE_WITH_KNOTS('',3,(#321,#322,#323,#324),
  .UNSPECIFIED.,.F.,.F.,(4,4),(-0.22687334262,0.),
  .PIECEWISE_BEZIER_KNOTS.);
#321 = CARTESIAN_POINT('',(57.5,2.395115976472,-21.08401398299));
#322 = CARTESIAN_POINT('',(57.5,2.398498733738,-20.36835412395));
#323 = CARTESIAN_POINT('',(57.5,2.4,-19.60265156846));
#324 = CARTESIAN_POINT('',(57.5,2.4,-18.78327388794));
#325 = PLANE('',#326);
#326 = AXIS2_PLACEMENT_3D('',#327,#328,#329);
#327 = CARTESIAN_POINT('',(57.5,2.5,-18.78327388794));
#328 = DIRECTION('',(-1.,0.,0.));
#329 = DIRECTION('',(0.,0.,-1.));
#330 = ADVANCED_FACE('',(#331),#385,.F.);
#331 = FACE_BOUND('',#332,.F.);
#332 = EDGE_LOOP('',(#333,#343,#361,#369));
#333 = ORIENTED_EDGE('',*,*,#334,.F.);
#334 = EDGE_CURVE('',#335,#337,#339,.T.);
#335 = VERTEX_POINT('',#336);
#336 = CARTESIAN_POINT('',(43.,2.394425413071,-21.08832286994));
#337 = VERTEX_POINT('',#338);
#338 = CARTESIAN_POINT('',(43.,2.494426769421,-21.08832286994));
#339 = LINE('',#340,#341);
#340 = CARTESIAN_POINT('',(43.,2.5,-21.08832286989));
#341 = VECTOR('',#342,1.);
#342 = DIRECTION('',(0.,1.,0.));
#343 = ORIENTED_EDGE('',*,*,#344,.F.);
#344 = EDGE_CURVE('',#345,#335,#347,.T.);
#345 = VERTEX_POINT('',#346);
#346 = CARTESIAN_POINT('',(42.810927021903,2.393078143368,
    -21.33078502777));
#347 = B_SPLINE_CURVE_WITH_KNOTS('',3,(#348,#349,#350,#351,#352,#353,
    #354,#355,#356,#357,#358,#359,#360),.UNSPECIFIED.,.F.,.F.,(4,3,3,3,4
    ),(-3.319818357754E-02,-2.715605914181E-02,-1.93381658092E-02,
    -9.661549700342E-03,-3.655153601334E-08),.UNSPECIFIED.);
#348 = CARTESIAN_POINT('',(42.810927021903,2.393890754511,-21.3257903205
    ));
#349 = CARTESIAN_POINT('',(42.830460146868,2.393917263728,
    -21.32089578329));
#350 = CARTESIAN_POINT('',(42.849328730006,2.393956337626,
    -21.31366536951));
#351 = CARTESIAN_POINT('',(42.867122101548,2.394006701487,
    -21.30425648692));
#352 = CARTESIAN_POINT('',(42.890144911195,2.394071867191,
    -21.29208235161));
#353 = CARTESIAN_POINT('',(42.911117836052,2.394155216836,
    -21.27639317572));
#354 = CARTESIAN_POINT('',(42.929279946499,2.394252443145,
    -21.25775828833));
#355 = CARTESIAN_POINT('',(42.951760142001,2.394372785241,
    -21.23469291203));
#356 = CARTESIAN_POINT('',(42.969552783222,2.394512256822,
    -21.20750584841));
#357 = CARTESIAN_POINT('',(42.981674441523,2.394660941417,
    -21.17769987824));
#358 = CARTESIAN_POINT('',(42.99377718072,2.394809393949,-21.14794042829
    ));
#359 = CARTESIAN_POINT('',(42.999999999993,2.394964183439,
    -21.11612748451));
#360 = CARTESIAN_POINT('',(43.,2.395115976472,-21.08401398299));
#361 = ORIENTED_EDGE('',*,*,#362,.F.);
#362 = EDGE_CURVE('',#363,#345,#365,.T.);
#363 = VERTEX_POINT('',#364);
#364 = CARTESIAN_POINT('',(42.810927021904,2.493079889539,
    -21.33078502777));
#365 = LINE('',#366,#367);
#366 = CARTESIAN_POINT('',(42.810927021937,2.5,-21.33078502776));
#367 = VECTOR('',#368,1.);
#368 = DIRECTION('',(0.,-1.,0.));
#369 = ORIENTED_EDGE('',*,*,#370,.F.);
#370 = EDGE_CURVE('',#337,#363,#371,.T.);
#371 = B_SPLINE_CURVE_WITH_KNOTS('',3,(#372,#373,#374,#375,#376,#377,
    #378,#379,#380,#381,#382,#383,#384),.UNSPECIFIED.,.F.,.F.,(4,3,3,3,4
    ),(-3.319287212085E-02,-2.394499326908E-02,-1.516787809392E-02,
    -7.276627434398E-03,0.),.UNSPECIFIED.);
#372 = CARTESIAN_POINT('',(43.,2.494426769422,-21.08832286989));
#373 = CARTESIAN_POINT('',(43.,2.49426623931,-21.11914872681));
#374 = CARTESIAN_POINT('',(42.994298599361,2.494102943006,
    -21.14971039948));
#375 = CARTESIAN_POINT('',(42.983184030685,2.493945844315,
    -21.17846280462));
#376 = CARTESIAN_POINT('',(42.972635249612,2.493796742739,
    -21.20575156733));
#377 = CARTESIAN_POINT('',(42.957377597517,2.493655641161,
    -21.23097801965));
#378 = CARTESIAN_POINT('',(42.93810688048,2.493530612347,-21.25299163292
    ));
#379 = CARTESIAN_POINT('',(42.920781135574,2.493418202552,
    -21.27278343657));
#380 = CARTESIAN_POINT('',(42.900439794453,2.493320316449,
    -21.28971743659));
#381 = CARTESIAN_POINT('',(42.877834633099,2.493241942494,
    -21.30316771293));
#382 = CARTESIAN_POINT('',(42.856990112456,2.493169672826,
    -21.31557039205));
#383 = CARTESIAN_POINT('',(42.834451088044,2.493114817569,
    -21.32487379071));
#384 = CARTESIAN_POINT('',(42.810927021903,2.493079889539,
    -21.33078502777));
#385 = CYLINDRICAL_SURFACE('',#386,0.25);
#386 = AXIS2_PLACEMENT_3D('',#387,#388,#389);
#387 = CARTESIAN_POINT('',(42.75,2.5,-21.08832286989));
#388 = DIRECTION('',(0.,-1.,0.));
#389 = DIRECTION('',(0.78857722759,0.,-0.61493573333));
#390 = ADVANCED_FACE('',(#391),#418,.F.);
#391 = FACE_BOUND('',#392,.T.);
#392 = EDGE_LOOP('',(#393,#394,#403,#411));
#393 = ORIENTED_EDGE('',*,*,#362,.F.);
#394 = ORIENTED_EDGE('',*,*,#395,.F.);
#395 = EDGE_CURVE('',#396,#363,#398,.T.);
#396 = VERTEX_POINT('',#397);
#397 = CARTESIAN_POINT('',(20.439072960094,2.371938842066,-26.9524888647
    ));
#398 = B_SPLINE_CURVE_WITH_KNOTS('',3,(#399,#400,#401,#402),
  .UNSPECIFIED.,.F.,.F.,(4,4),(-1.817963803934,-6.76991454172E-02),
  .PIECEWISE_BEZIER_KNOTS.);
#399 = CARTESIAN_POINT('',(20.439072960091,2.3719388423,-26.9524888647)
  );
#400 = CARTESIAN_POINT('',(27.190383384836,2.459687098441,
    -25.25598809126));
#401 = CARTESIAN_POINT('',(36.855706864477,2.484237706037,
    -22.82724052566));
#402 = CARTESIAN_POINT('',(42.810927021904,2.493079889539,
    -21.33078502777));
#403 = ORIENTED_EDGE('',*,*,#404,.F.);
#404 = EDGE_CURVE('',#405,#396,#407,.T.);
#405 = VERTEX_POINT('',#406);
#406 = CARTESIAN_POINT('',(20.439072959928,2.271804887457,
    -26.95248886474));
#407 = LINE('',#408,#409);
#408 = CARTESIAN_POINT('',(20.439072978063,1.747578323416,
    -26.95248886018));
#409 = VECTOR('',#410,1.);
#410 = DIRECTION('',(0.,1.,0.));
#411 = ORIENTED_EDGE('',*,*,#412,.F.);
#412 = EDGE_CURVE('',#345,#405,#413,.T.);
#413 = B_SPLINE_CURVE_WITH_KNOTS('',3,(#414,#415,#416,#417),
  .UNSPECIFIED.,.F.,.F.,(4,4),(-2.089601909381,-1.941592062908E-02),
  .PIECEWISE_BEZIER_KNOTS.);
#414 = CARTESIAN_POINT('',(42.810927021903,2.393078143368,
    -21.33078502777));
#415 = CARTESIAN_POINT('',(36.861809776787,2.384242395504,
    -22.82570695738));
#416 = CARTESIAN_POINT('',(27.186574956291,2.359687588672,
    -25.25694509095));
#417 = CARTESIAN_POINT('',(20.439072959926,2.271804887693,
    -26.95248886474));
#418 = PLANE('',#419);
#419 = AXIS2_PLACEMENT_3D('',#420,#421,#422);
#420 = CARTESIAN_POINT('',(20.25,2.5,-27.));
#421 = DIRECTION('',(0.243708087748,0.,-0.969848631471));
#422 = DIRECTION('',(0.969848631471,0.,0.243708087748));
#423 = ADVANCED_FACE('',(#424),#475,.T.);
#424 = FACE_BOUND('',#425,.T.);
#425 = EDGE_LOOP('',(#426,#447,#455,#474));
#426 = ORIENTED_EDGE('',*,*,#427,.T.);
#427 = EDGE_CURVE('',#396,#428,#430,.T.);
#428 = VERTEX_POINT('',#429);
#429 = CARTESIAN_POINT('',(20.25,2.358756325413,-27.19495101805));
#430 = B_SPLINE_CURVE_WITH_KNOTS('',3,(#431,#432,#433,#434,#435,#436,
    #437,#438,#439,#440,#441,#442,#443,#444,#445,#446),.UNSPECIFIED.,.F.
  ,.F.,(4,3,3,3,3,4),(-3.32428830338E-02,-2.948789793072E-02,
    -1.973337435438E-02,-9.951002675233E-03,-1.57558497725E-03,0.),
  .UNSPECIFIED.);
#431 = CARTESIAN_POINT('',(20.439072960094,2.371938842299,
    -26.95248886471));
#432 = CARTESIAN_POINT('',(20.426950184157,2.371781285452,
    -26.95553502567));
#433 = CARTESIAN_POINT('',(20.415066183587,2.371576557369,
    -26.95948800162));
#434 = CARTESIAN_POINT('',(20.403522120512,2.37132558396,-26.96431706832
    ));
#435 = CARTESIAN_POINT('',(20.373533487204,2.370673616842,
    -26.97686179451));
#436 = CARTESIAN_POINT('',(20.346285189622,2.369719695335,-26.9951325335
    ));
#437 = CARTESIAN_POINT('',(20.323300504175,2.368499823623,
    -27.01809715698));
#438 = CARTESIAN_POINT('',(20.300250199953,2.367276469311,
    -27.04112734196));
#439 = CARTESIAN_POINT('',(20.281929963715,2.36580829891,-27.0684362342)
  );
#440 = CARTESIAN_POINT('',(20.269363302432,2.364159027281,
    -27.09847970772));
#441 = CARTESIAN_POINT('',(20.258604046827,2.362746962881,
    -27.12420216523));
#442 = CARTESIAN_POINT('',(20.252239198228,2.361224973729,
    -27.15150797422));
#443 = CARTESIAN_POINT('',(20.250493382449,2.359650216914,
    -27.17925309097));
#444 = CARTESIAN_POINT('',(20.250164959292,2.359353973398,
    -27.18447250697));
#445 = CARTESIAN_POINT('',(20.25,2.359055876148,-27.18970761769));
#446 = CARTESIAN_POINT('',(20.25,2.358756325413,-27.19495101805));
#447 = ORIENTED_EDGE('',*,*,#448,.T.);
#448 = EDGE_CURVE('',#428,#449,#451,.T.);
#449 = VERTEX_POINT('',#450);
#450 = CARTESIAN_POINT('',(20.25,2.258592884208,-27.19495101805));
#451 = LINE('',#452,#453);
#452 = CARTESIAN_POINT('',(20.25,1.747578323416,-27.19495101805));
#453 = VECTOR('',#454,1.);
#454 = DIRECTION('',(0.,-1.,0.));
#455 = ORIENTED_EDGE('',*,*,#456,.T.);
#456 = EDGE_CURVE('',#449,#405,#457,.T.);
#457 = B_SPLINE_CURVE_WITH_KNOTS('',3,(#458,#459,#460,#461,#462,#463,
    #464,#465,#466,#467,#468,#469,#470,#471,#472,#473),.UNSPECIFIED.,.F.
  ,.F.,(4,3,3,3,3,4),(0.,8.276519440609E-03,9.015554418951E-03,
    1.778314719923E-02,2.774725247177E-02,3.323183102586E-02),
  .UNSPECIFIED.);
#458 = CARTESIAN_POINT('',(20.25,2.258896490842,-27.19382834942));
#459 = CARTESIAN_POINT('',(20.25,2.260494272795,-27.16620545451));
#460 = CARTESIAN_POINT('',(20.254551787069,2.262053072824,
    -27.13878259567));
#461 = CARTESIAN_POINT('',(20.26345861265,2.263515147893,-27.11266600291
    ));
#462 = CARTESIAN_POINT('',(20.264253929534,2.263645700914,
    -27.11033397486));
#463 = CARTESIAN_POINT('',(20.265083970159,2.263775485704,
    -27.10801239595));
#464 = CARTESIAN_POINT('',(20.265948594449,2.263904462852,
    -27.10570207324));
#465 = CARTESIAN_POINT('',(20.276206124749,2.265434592201,
    -27.07829339935));
#466 = CARTESIAN_POINT('',(20.291172288448,2.266827294473,-27.0528879759
    ));
#467 = CARTESIAN_POINT('',(20.310174069082,2.268032393435,
    -27.03064417516));
#468 = CARTESIAN_POINT('',(20.33176902078,2.269401952128,-27.00536476519
    ));
#469 = CARTESIAN_POINT('',(20.358172352212,2.27050433267,-26.98464190951
    ));
#470 = CARTESIAN_POINT('',(20.387846607783,2.271294638305,
    -26.96969688466));
#471 = CARTESIAN_POINT('',(20.404180313976,2.271729649051,
    -26.96147064139));
#472 = CARTESIAN_POINT('',(20.421358929902,2.272066174707,
    -26.95506841481));
#473 = CARTESIAN_POINT('',(20.439072959926,2.272300566829,
    -26.95060232022));
#474 = ORIENTED_EDGE('',*,*,#404,.T.);
#475 = CYLINDRICAL_SURFACE('',#476,0.25);
#476 = AXIS2_PLACEMENT_3D('',#477,#478,#479);
#477 = CARTESIAN_POINT('',(20.5,1.747578323416,-27.19495101805));
#478 = DIRECTION('',(0.,1.,0.));
#479 = DIRECTION('',(-0.78857722759,0.,0.61493573333));
#480 = ADVANCED_FACE('',(#481),#519,.F.);
#481 = FACE_BOUND('',#482,.T.);
#482 = EDGE_LOOP('',(#483,#484,#498,#506));
#483 = ORIENTED_EDGE('',*,*,#448,.F.);
#484 = ORIENTED_EDGE('',*,*,#485,.T.);
#485 = EDGE_CURVE('',#428,#486,#488,.T.);
#486 = VERTEX_POINT('',#487);
#487 = CARTESIAN_POINT('',(20.25,-0.5,-31.96250980472));
#488 = B_SPLINE_CURVE_WITH_KNOTS('',5,(#489,#490,#491,#492,#493,#494,
    #495,#496,#497),.UNSPECIFIED.,.F.,.F.,(6,1,1,1,6),(0.316589754214,
    0.4,0.6,0.8,1.),.UNSPECIFIED.);
#489 = CARTESIAN_POINT('',(20.25,2.358756325413,-27.19495101805));
#490 = CARTESIAN_POINT('',(20.25,2.341984463462,-27.48852928993));
#491 = CARTESIAN_POINT('',(20.25,2.279524930448,-28.42972038947));
#492 = CARTESIAN_POINT('',(20.25,2.138588017921,-29.72615007942));
#493 = CARTESIAN_POINT('',(20.25,1.831326009764,-30.95659524014));
#494 = CARTESIAN_POINT('',(20.25,1.285783841294,-31.61819965582));
#495 = CARTESIAN_POINT('',(20.25,0.522018973863,-31.8998930216));
#496 = CARTESIAN_POINT('',(20.25,-0.134712195269,-31.96250980472));
#497 = CARTESIAN_POINT('',(20.25,-0.5,-31.96250980472));
#498 = ORIENTED_EDGE('',*,*,#499,.T.);
#499 = EDGE_CURVE('',#486,#500,#502,.T.);
#500 = VERTEX_POINT('',#501);
#501 = CARTESIAN_POINT('',(20.25,-0.5,-31.86250980472));
#502 = LINE('',#503,#504);
#503 = CARTESIAN_POINT('',(20.25,-0.5,-31.86250980472));
#504 = VECTOR('',#505,1.);
#505 = DIRECTION('',(0.,1.582067810091E-13,1.));
#506 = ORIENTED_EDGE('',*,*,#507,.T.);
#507 = EDGE_CURVE('',#500,#449,#508,.T.);
#508 = B_SPLINE_CURVE_WITH_KNOTS('',3,(#509,#510,#511,#512,#513,#514,
    #515,#516,#517,#518),.UNSPECIFIED.,.F.,.F.,(4,3,3,4),(-1.,
    -0.732273152156,-0.357508523202,-0.316914763027),.UNSPECIFIED.);
#509 = CARTESIAN_POINT('',(20.25,-0.5,-31.86250980472));
#510 = CARTESIAN_POINT('',(20.25,0.299680233791,-31.86250980472));
#511 = CARTESIAN_POINT('',(20.25,0.855182109409,-31.68941529819));
#512 = CARTESIAN_POINT('',(20.25,1.247377935551,-31.30940115642));
#513 = CARTESIAN_POINT('',(20.25,1.796374513388,-30.77745652709));
#514 = CARTESIAN_POINT('',(20.25,2.063587393411,-29.82617555873));
#515 = CARTESIAN_POINT('',(20.25,2.213868162464,-27.8685553616));
#516 = CARTESIAN_POINT('',(20.25,2.23014627685,-27.65650983047));
#517 = CARTESIAN_POINT('',(20.25,2.245127505176,-27.43187036972));
#518 = CARTESIAN_POINT('',(20.25,2.258896490842,-27.19382834942));
#519 = PLANE('',#520);
#520 = AXIS2_PLACEMENT_3D('',#521,#522,#523);
#521 = CARTESIAN_POINT('',(20.25,0.995156646832,-25.36804849316));
#522 = DIRECTION('',(1.,0.,0.));
#523 = DIRECTION('',(-0.,1.,0.));
#524 = ADVANCED_FACE('',(#525),#604,.T.);
#525 = FACE_BOUND('',#526,.T.);
#526 = EDGE_LOOP('',(#527,#528,#529,#530,#545,#551,#552,#553,#562,#583,
    #597,#603));
#527 = ORIENTED_EDGE('',*,*,#427,.F.);
#528 = ORIENTED_EDGE('',*,*,#395,.T.);
#529 = ORIENTED_EDGE('',*,*,#370,.F.);
#530 = ORIENTED_EDGE('',*,*,#531,.T.);
#531 = EDGE_CURVE('',#337,#532,#534,.T.);
#532 = VERTEX_POINT('',#533);
#533 = CARTESIAN_POINT('',(43.,2.5,-18.78327388794));
#534 = B_SPLINE_CURVE_WITH_KNOTS('',3,(#535,#536,#537,#538,#539,#540,
    #541,#542,#543,#544),.UNSPECIFIED.,.F.,.F.,(4,3,3,4),(
    -0.226877255747,-0.134166161849,-4.467717136906E-02,0.),
  .UNSPECIFIED.);
#535 = CARTESIAN_POINT('',(43.,2.494426769422,-21.08832286994));
#536 = CARTESIAN_POINT('',(43.,2.495954162801,-20.79502456512));
#537 = CARTESIAN_POINT('',(43.,2.497162325005,-20.49336094887));
#538 = CARTESIAN_POINT('',(43.,2.498058564439,-20.1832158252));
#539 = CARTESIAN_POINT('',(43.,2.498923655754,-19.88384955896));
#540 = CARTESIAN_POINT('',(43.,2.499498102742,-19.57658094617));
#541 = CARTESIAN_POINT('',(43.,2.499785114191,-19.2613538164));
#542 = CARTESIAN_POINT('',(43.,2.499928403992,-19.10397740147));
#543 = CARTESIAN_POINT('',(43.,2.5,-18.94461811883));
#544 = CARTESIAN_POINT('',(43.,2.5,-18.78327388794));
#545 = ORIENTED_EDGE('',*,*,#546,.T.);
#546 = EDGE_CURVE('',#532,#297,#547,.T.);
#547 = LINE('',#548,#549);
#548 = CARTESIAN_POINT('',(50.25,2.5,-18.78327388794));
#549 = VECTOR('',#550,1.);
#550 = DIRECTION('',(1.,0.,0.));
#551 = ORIENTED_EDGE('',*,*,#296,.T.);
#552 = ORIENTED_EDGE('',*,*,#271,.F.);
#553 = ORIENTED_EDGE('',*,*,#554,.T.);
#554 = EDGE_CURVE('',#238,#555,#557,.T.);
#555 = VERTEX_POINT('',#556);
#556 = CARTESIAN_POINT('',(80.060927039906,2.371938842066,-26.9524888647
    ));
#557 = B_SPLINE_CURVE_WITH_KNOTS('',3,(#558,#559,#560,#561),
  .UNSPECIFIED.,.F.,.F.,(4,4),(-2.090870356686,-1.941638733216E-02),
  .PIECEWISE_BEZIER_KNOTS.);
#558 = CARTESIAN_POINT('',(57.689072978096,2.493079889539,
    -21.33078502777));
#559 = CARTESIAN_POINT('',(63.644293135523,2.484237706037,
    -22.82724052566));
#560 = CARTESIAN_POINT('',(73.309616615164,2.459687098441,
    -25.25598809126));
#561 = CARTESIAN_POINT('',(80.060927039909,2.3719388423,-26.9524888647)
  );
#562 = ORIENTED_EDGE('',*,*,#563,.F.);
#563 = EDGE_CURVE('',#564,#555,#566,.T.);
#564 = VERTEX_POINT('',#565);
#565 = CARTESIAN_POINT('',(80.25,2.358756325413,-27.19495101805));
#566 = B_SPLINE_CURVE_WITH_KNOTS('',3,(#567,#568,#569,#570,#571,#572,
    #573,#574,#575,#576,#577,#578,#579,#580,#581,#582),.UNSPECIFIED.,.F.
  ,.F.,(4,3,3,3,3,4),(0.,8.319579932497E-03,8.820948487838E-03,
    1.760177566829E-02,2.756630586972E-02,3.32306998798E-02),
  .UNSPECIFIED.);
#567 = CARTESIAN_POINT('',(80.25,2.358756325413,-27.19495101805));
#568 = CARTESIAN_POINT('',(80.25,2.360338046689,-27.16726422929));
#569 = CARTESIAN_POINT('',(80.245400654779,2.361880393737,-27.1397771905
    ));
#570 = CARTESIAN_POINT('',(80.236397580257,2.363325779726,
    -27.11361113541));
#571 = CARTESIAN_POINT('',(80.235855021798,2.363412884013,
    -27.11203427247));
#572 = CARTESIAN_POINT('',(80.235296470263,2.363499637601,
    -27.11046222247));
#573 = CARTESIAN_POINT('',(80.234721968465,2.363586028419,-27.1088952366
    ));
#574 = CARTESIAN_POINT('',(80.224660306334,2.365099052798,
    -27.08145148905));
#575 = CARTESIAN_POINT('',(80.20986062827,2.366477490856,-27.05597711274
    ));
#576 = CARTESIAN_POINT('',(80.190990394147,2.367671808479,
    -27.03363558375));
#577 = CARTESIAN_POINT('',(80.169576350349,2.369027126582,
    -27.00828229574));
#578 = CARTESIAN_POINT('',(80.143321048916,2.370120717008,
    -26.98743815689));
#579 = CARTESIAN_POINT('',(80.113753330314,2.370908470931,
    -26.97232986038));
#580 = CARTESIAN_POINT('',(80.096945393532,2.371356274102,
    -26.96374146382));
#581 = CARTESIAN_POINT('',(80.079223214999,2.371701051518,-26.9570862466
    ));
#582 = CARTESIAN_POINT('',(80.060927039909,2.3719388423,-26.9524888647)
  );
#583 = ORIENTED_EDGE('',*,*,#584,.F.);
#584 = EDGE_CURVE('',#585,#564,#587,.T.);
#585 = VERTEX_POINT('',#586);
#586 = CARTESIAN_POINT('',(80.25,-0.5,-31.96250980472));
#587 = B_SPLINE_CURVE_WITH_KNOTS('',5,(#588,#589,#590,#591,#592,#593,
    #594,#595,#596),.UNSPECIFIED.,.F.,.F.,(6,1,1,1,6),(-1.,-0.8,-0.6,
    -0.4,-0.316589754214),.UNSPECIFIED.);
#588 = CARTESIAN_POINT('',(80.25,-0.5,-31.96250980472));
#589 = CARTESIAN_POINT('',(80.25,-0.134712195269,-31.96250980472));
#590 = CARTESIAN_POINT('',(80.25,0.522018973863,-31.8998930216));
#591 = CARTESIAN_POINT('',(80.25,1.285783841294,-31.61819965582));
#592 = CARTESIAN_POINT('',(80.25,1.831326009764,-30.95659524014));
#593 = CARTESIAN_POINT('',(80.25,2.138588017921,-29.72615007942));
#594 = CARTESIAN_POINT('',(80.25,2.279524930448,-28.42972038947));
#595 = CARTESIAN_POINT('',(80.25,2.341984463462,-27.48852928993));
#596 = CARTESIAN_POINT('',(80.25,2.358756325413,-27.19495101805));
#597 = ORIENTED_EDGE('',*,*,#598,.F.);
#598 = EDGE_CURVE('',#486,#585,#599,.T.);
#599 = LINE('',#600,#601);
#600 = CARTESIAN_POINT('',(50.25,-0.5,-31.96250980472));
#601 = VECTOR('',#602,1.);
#602 = DIRECTION('',(1.,0.,0.));
#603 = ORIENTED_EDGE('',*,*,#485,.F.);
#604 = B_SPLINE_SURFACE_WITH_KNOTS('',5,1,(
    (#605,#606)
    ,(#607,#608)
    ,(#609,#610)
    ,(#611,#612)
    ,(#613,#614)
    ,(#615,#616)
    ,(#617,#618)
    ,(#619,#620)
    ,(#621,#622)
    ,(#623,#624
    )),.UNSPECIFIED.,.F.,.F.,.F.,(6,1,1,1,1,6),(2,2),(-1.,-0.8,-0.6,-0.4
    ,-0.2,0.),(-3.,3.),.UNSPECIFIED.);
#605 = CARTESIAN_POINT('',(20.25,-0.5,-31.96250980472));
#606 = CARTESIAN_POINT('',(80.25,-0.5,-31.96250980472));
#607 = CARTESIAN_POINT('',(20.25,-0.134712195269,-31.96250980472));
#608 = CARTESIAN_POINT('',(80.25,-0.134712195269,-31.96250980472));
#609 = CARTESIAN_POINT('',(20.25,0.522018973863,-31.8998930216));
#610 = CARTESIAN_POINT('',(80.25,0.522018973863,-31.8998930216));
#611 = CARTESIAN_POINT('',(20.25,1.285783841294,-31.61819965582));
#612 = CARTESIAN_POINT('',(80.25,1.285783841294,-31.61819965582));
#613 = CARTESIAN_POINT('',(20.25,1.924395476789,-30.84372555946));
#614 = CARTESIAN_POINT('',(80.25,1.924395476789,-30.84372555946));
#615 = CARTESIAN_POINT('',(20.25,2.314514627339,-28.90127682982));
#616 = CARTESIAN_POINT('',(80.25,2.314514627339,-28.90127682982));
#617 = CARTESIAN_POINT('',(20.25,2.44564013936,-26.08698049932));
#618 = CARTESIAN_POINT('',(80.25,2.44564013936,-26.08698049932));
#619 = CARTESIAN_POINT('',(20.25,2.490115888669,-22.91413037466));
#620 = CARTESIAN_POINT('',(80.25,2.490115888669,-22.91413037466));
#621 = CARTESIAN_POINT('',(20.25,2.5,-20.25153509054));
#622 = CARTESIAN_POINT('',(80.25,2.5,-20.25153509054));
#623 = CARTESIAN_POINT('',(20.25,2.5,-18.78327388794));
#624 = CARTESIAN_POINT('',(80.25,2.5,-18.78327388794));
#625 = ADVANCED_FACE('',(#626),#664,.T.);
#626 = FACE_BOUND('',#627,.T.);
#627 = EDGE_LOOP('',(#628,#651,#657,#658));
#628 = ORIENTED_EDGE('',*,*,#629,.T.);
#629 = EDGE_CURVE('',#630,#632,#634,.T.);
#630 = VERTEX_POINT('',#631);
#631 = CARTESIAN_POINT('',(80.060927040072,2.271804887457,
    -26.95248886474));
#632 = VERTEX_POINT('',#633);
#633 = CARTESIAN_POINT('',(80.25,2.258592884208,-27.19495101805));
#634 = B_SPLINE_CURVE_WITH_KNOTS('',3,(#635,#636,#637,#638,#639,#640,
    #641,#642,#643,#644,#645,#646,#647,#648,#649,#650),.UNSPECIFIED.,.F.
  ,.F.,(4,3,3,3,3,4),(-3.324299222854E-02,-2.94842934379E-02,
    -1.973286993124E-02,-9.95104622219E-03,-1.627317708112E-03,0.),
  .UNSPECIFIED.);
#635 = CARTESIAN_POINT('',(80.060927040072,2.272300566828,
    -26.95060232023));
#636 = CARTESIAN_POINT('',(80.073061809417,2.272139998969,
    -26.95366177139));
#637 = CARTESIAN_POINT('',(80.084957297266,2.271931317359,
    -26.95763287013));
#638 = CARTESIAN_POINT('',(80.096512045669,2.271675484136,
    -26.96248462974));
#639 = CARTESIAN_POINT('',(80.126489249984,2.271011760053,
    -26.97507185225));
#640 = CARTESIAN_POINT('',(80.153727077521,2.270040955693,
    -26.99339993501));
#641 = CARTESIAN_POINT('',(80.176703820355,2.268800153482,
    -27.01643267697));
#642 = CARTESIAN_POINT('',(80.199752193514,2.267555483053,
    -27.03953722383));
#643 = CARTESIAN_POINT('',(80.218070936732,2.266062190657,
    -27.06693241163));
#644 = CARTESIAN_POINT('',(80.230636790984,2.264385668593,
    -27.09706747669));
#645 = CARTESIAN_POINT('',(80.241329557738,2.262959051745,
    -27.12271055796));
#646 = CARTESIAN_POINT('',(80.247682031694,2.261422696524,-27.1499203233
    ));
#647 = CARTESIAN_POINT('',(80.249473746598,2.259833875774,
    -27.17756929064));
#648 = CARTESIAN_POINT('',(80.249824033058,2.259523255824,
    -27.18297475937));
#649 = CARTESIAN_POINT('',(80.25,2.259210644501,-27.18839717435));
#650 = CARTESIAN_POINT('',(80.25,2.258896490842,-27.19382834942));
#651 = ORIENTED_EDGE('',*,*,#652,.T.);
#652 = EDGE_CURVE('',#632,#564,#653,.T.);
#653 = LINE('',#654,#655);
#654 = CARTESIAN_POINT('',(80.25,1.747578323416,-27.19495101805));
#655 = VECTOR('',#656,1.);
#656 = DIRECTION('',(0.,1.,0.));
#657 = ORIENTED_EDGE('',*,*,#563,.T.);
#658 = ORIENTED_EDGE('',*,*,#659,.T.);
#659 = EDGE_CURVE('',#555,#630,#660,.T.);
#660 = LINE('',#661,#662);
#661 = CARTESIAN_POINT('',(80.060927021937,1.747578323416,
    -26.95248886018));
#662 = VECTOR('',#663,1.);
#663 = DIRECTION('',(0.,-1.,0.));
#664 = CYLINDRICAL_SURFACE('',#665,0.25);
#665 = AXIS2_PLACEMENT_3D('',#666,#667,#668);
#666 = CARTESIAN_POINT('',(80.,1.747578323416,-27.19495101805));
#667 = DIRECTION('',(0.,-1.,0.));
#668 = DIRECTION('',(0.78857722759,0.,0.61493573333));
#669 = ADVANCED_FACE('',(#670),#695,.T.);
#670 = FACE_BOUND('',#671,.T.);
#671 = EDGE_LOOP('',(#672,#673,#688,#694));
#672 = ORIENTED_EDGE('',*,*,#652,.F.);
#673 = ORIENTED_EDGE('',*,*,#674,.T.);
#674 = EDGE_CURVE('',#632,#675,#677,.T.);
#675 = VERTEX_POINT('',#676);
#676 = CARTESIAN_POINT('',(80.25,-0.5,-31.86250980472));
#677 = B_SPLINE_CURVE_WITH_KNOTS('',3,(#678,#679,#680,#681,#682,#683,
    #684,#685,#686,#687),.UNSPECIFIED.,.F.,.F.,(4,3,3,4),(0.316914763027
    ,0.357508523202,0.732273152156,1.),.UNSPECIFIED.);
#678 = CARTESIAN_POINT('',(80.25,2.258896490842,-27.19382834942));
#679 = CARTESIAN_POINT('',(80.25,2.245127505176,-27.43187036972));
#680 = CARTESIAN_POINT('',(80.25,2.23014627685,-27.65650983047));
#681 = CARTESIAN_POINT('',(80.25,2.213868162464,-27.8685553616));
#682 = CARTESIAN_POINT('',(80.25,2.063587393411,-29.82617555873));
#683 = CARTESIAN_POINT('',(80.25,1.796374513388,-30.77745652709));
#684 = CARTESIAN_POINT('',(80.25,1.247377935551,-31.30940115642));
#685 = CARTESIAN_POINT('',(80.25,0.855182109409,-31.68941529819));
#686 = CARTESIAN_POINT('',(80.25,0.299680233791,-31.86250980472));
#687 = CARTESIAN_POINT('',(80.25,-0.5,-31.86250980472));
#688 = ORIENTED_EDGE('',*,*,#689,.T.);
#689 = EDGE_CURVE('',#675,#585,#690,.T.);
#690 = LINE('',#691,#692);
#691 = CARTESIAN_POINT('',(80.25,-0.5,-31.86250980472));
#692 = VECTOR('',#693,1.);
#693 = DIRECTION('',(0.,-1.582067810091E-13,-1.));
#694 = ORIENTED_EDGE('',*,*,#584,.T.);
#695 = PLANE('',#696);
#696 = AXIS2_PLACEMENT_3D('',#697,#698,#699);
#697 = CARTESIAN_POINT('',(80.25,0.995156646832,-25.36804849316));
#698 = DIRECTION('',(1.,0.,0.));
#699 = DIRECTION('',(-0.,1.,0.));
#700 = ADVANCED_FACE('',(#701),#720,.F.);
#701 = FACE_BOUND('',#702,.T.);
#702 = EDGE_LOOP('',(#703,#704,#713,#719));
#703 = ORIENTED_EDGE('',*,*,#334,.F.);
#704 = ORIENTED_EDGE('',*,*,#705,.F.);
#705 = EDGE_CURVE('',#706,#335,#708,.T.);
#706 = VERTEX_POINT('',#707);
#707 = CARTESIAN_POINT('',(43.,2.4,-18.78327388794));
#708 = B_SPLINE_CURVE_WITH_KNOTS('',3,(#709,#710,#711,#712),
  .UNSPECIFIED.,.F.,.F.,(4,4),(-0.29627766473,-6.896106786303E-02),
  .PIECEWISE_BEZIER_KNOTS.);
#709 = CARTESIAN_POINT('',(43.,2.4,-18.78327388794));
#710 = CARTESIAN_POINT('',(43.,2.4,-19.60265156846));
#711 = CARTESIAN_POINT('',(43.,2.398498733738,-20.36835412395));
#712 = CARTESIAN_POINT('',(43.,2.395115976472,-21.08401398299));
#713 = ORIENTED_EDGE('',*,*,#714,.F.);
#714 = EDGE_CURVE('',#532,#706,#715,.T.);
#715 = LINE('',#716,#717);
#716 = CARTESIAN_POINT('',(43.,2.5,-18.78327388794));
#717 = VECTOR('',#718,1.);
#718 = DIRECTION('',(0.,-1.,0.));
#719 = ORIENTED_EDGE('',*,*,#531,.F.);
#720 = PLANE('',#721);
#721 = AXIS2_PLACEMENT_3D('',#722,#723,#724);
#722 = CARTESIAN_POINT('',(43.,2.5,-21.28327388794));
#723 = DIRECTION('',(1.,0.,0.));
#724 = DIRECTION('',(0.,0.,1.));
#725 = ADVANCED_FACE('',(#726),#738,.F.);
#726 = FACE_BOUND('',#727,.T.);
#727 = EDGE_LOOP('',(#728,#729,#736,#737));
#728 = ORIENTED_EDGE('',*,*,#235,.F.);
#729 = ORIENTED_EDGE('',*,*,#730,.F.);
#730 = EDGE_CURVE('',#630,#236,#731,.T.);
#731 = B_SPLINE_CURVE_WITH_KNOTS('',3,(#732,#733,#734,#735),
  .UNSPECIFIED.,.F.,.F.,(4,4),(-1.815553225496,-6.768698089197E-02),
  .PIECEWISE_BEZIER_KNOTS.);
#732 = CARTESIAN_POINT('',(80.060927040075,2.271804887693,
    -26.95248886474));
#733 = CARTESIAN_POINT('',(73.313425043709,2.359687588672,
    -25.25694509095));
#734 = CARTESIAN_POINT('',(63.638190223214,2.384242395504,
    -22.82570695738));
#735 = CARTESIAN_POINT('',(57.689072978097,2.393078143368,
    -21.33078502777));
#736 = ORIENTED_EDGE('',*,*,#659,.F.);
#737 = ORIENTED_EDGE('',*,*,#554,.F.);
#738 = PLANE('',#739);
#739 = AXIS2_PLACEMENT_3D('',#740,#741,#742);
#740 = CARTESIAN_POINT('',(57.5,2.5,-21.28327388794));
#741 = DIRECTION('',(-0.243708087748,0.,-0.969848631471));
#742 = DIRECTION('',(0.969848631471,0.,-0.243708087748));
#743 = ADVANCED_FACE('',(#744),#755,.T.);
#744 = FACE_BOUND('',#745,.T.);
#745 = EDGE_LOOP('',(#746,#747,#753,#754));
#746 = ORIENTED_EDGE('',*,*,#714,.T.);
#747 = ORIENTED_EDGE('',*,*,#748,.F.);
#748 = EDGE_CURVE('',#312,#706,#749,.T.);
#749 = LINE('',#750,#751);
#750 = CARTESIAN_POINT('',(50.25,2.4,-18.78327388794));
#751 = VECTOR('',#752,1.);
#752 = DIRECTION('',(-1.,0.,0.));
#753 = ORIENTED_EDGE('',*,*,#311,.T.);
#754 = ORIENTED_EDGE('',*,*,#546,.F.);
#755 = PLANE('',#756);
#756 = AXIS2_PLACEMENT_3D('',#757,#758,#759);
#757 = CARTESIAN_POINT('',(50.25,2.5,-18.78327388794));
#758 = DIRECTION('',(0.,0.,1.));
#759 = DIRECTION('',(0.,-1.,0.));
#760 = ADVANCED_FACE('',(#761),#772,.T.);
#761 = FACE_BOUND('',#762,.T.);
#762 = EDGE_LOOP('',(#763,#764,#765,#771));
#763 = ORIENTED_EDGE('',*,*,#598,.T.);
#764 = ORIENTED_EDGE('',*,*,#689,.F.);
#765 = ORIENTED_EDGE('',*,*,#766,.F.);
#766 = EDGE_CURVE('',#500,#675,#767,.T.);
#767 = LINE('',#768,#769);
#768 = CARTESIAN_POINT('',(50.25,-0.5,-31.86250980472));
#769 = VECTOR('',#770,1.);
#770 = DIRECTION('',(1.,0.,0.));
#771 = ORIENTED_EDGE('',*,*,#499,.F.);
#772 = PLANE('',#773);
#773 = AXIS2_PLACEMENT_3D('',#774,#775,#776);
#774 = CARTESIAN_POINT('',(50.25,-0.5,-31.86250980472));
#775 = DIRECTION('',(0.,-1.,1.582067810091E-13));
#776 = DIRECTION('',(0.,-1.582067810091E-13,-1.));
#777 = ADVANCED_FACE('',(#778),#792,.T.);
#778 = FACE_BOUND('',#779,.T.);
#779 = EDGE_LOOP('',(#780,#781,#782,#783,#784,#785,#786,#787,#788,#789,
    #790,#791));
#780 = ORIENTED_EDGE('',*,*,#456,.F.);
#781 = ORIENTED_EDGE('',*,*,#507,.F.);
#782 = ORIENTED_EDGE('',*,*,#766,.T.);
#783 = ORIENTED_EDGE('',*,*,#674,.F.);
#784 = ORIENTED_EDGE('',*,*,#629,.F.);
#785 = ORIENTED_EDGE('',*,*,#730,.T.);
#786 = ORIENTED_EDGE('',*,*,#245,.F.);
#787 = ORIENTED_EDGE('',*,*,#319,.T.);
#788 = ORIENTED_EDGE('',*,*,#748,.T.);
#789 = ORIENTED_EDGE('',*,*,#705,.T.);
#790 = ORIENTED_EDGE('',*,*,#344,.F.);
#791 = ORIENTED_EDGE('',*,*,#412,.T.);
#792 = B_SPLINE_SURFACE_WITH_KNOTS('',3,1,(
    (#793,#794)
    ,(#795,#796)
    ,(#797,#798)
    ,(#799,#800)
    ,(#801,#802)
    ,(#803,#804)
    ,(#805,#806)
    ,(#807,#808)
    ,(#809,#810)
    ,(#811,#812
    )),.UNSPECIFIED.,.F.,.F.,.F.,(4,3,3,4),(2,2),(0.,0.357508523202,
    0.732273152156,1.),(-3.001937341267,3.),.UNSPECIFIED.);
#793 = CARTESIAN_POINT('',(20.230626587329,2.4,-18.78327388794));
#794 = CARTESIAN_POINT('',(80.25,2.4,-18.78327388794));
#795 = CARTESIAN_POINT('',(20.230626587329,2.4,-23.15677077536));
#796 = CARTESIAN_POINT('',(80.25,2.4,-23.15677077536));
#797 = CARTESIAN_POINT('',(20.230626587329,2.357229226074,
    -26.00107414382));
#798 = CARTESIAN_POINT('',(80.25,2.357229226074,-26.00107414382));
#799 = CARTESIAN_POINT('',(20.230626587329,2.213868162464,-27.8685553616
    ));
#800 = CARTESIAN_POINT('',(80.25,2.213868162464,-27.8685553616));
#801 = CARTESIAN_POINT('',(20.230626587329,2.063587393411,
    -29.82617555873));
#802 = CARTESIAN_POINT('',(80.25,2.063587393411,-29.82617555873));
#803 = CARTESIAN_POINT('',(20.230626587329,1.796374513388,
    -30.77745652709));
#804 = CARTESIAN_POINT('',(80.25,1.796374513388,-30.77745652709));
#805 = CARTESIAN_POINT('',(20.230626587329,1.247377935551,
    -31.30940115642));
#806 = CARTESIAN_POINT('',(80.25,1.247377935551,-31.30940115642));
#807 = CARTESIAN_POINT('',(20.230626587329,0.855182109409,
    -31.68941529819));
#808 = CARTESIAN_POINT('',(80.25,0.855182109409,-31.68941529819));
#809 = CARTESIAN_POINT('',(20.230626587329,0.299680233791,
    -31.86250980472));
#810 = CARTESIAN_POINT('',(80.25,0.299680233791,-31.86250980472));
#811 = CARTESIAN_POINT('',(20.230626587329,-0.5,-31.86250980472));
#812 = CARTESIAN_POINT('',(80.25,-0.5,-31.86250980472));
#813 = ( GEOMETRIC_REPRESENTATION_CONTEXT(3) 
GLOBAL_UNCERTAINTY_ASSIGNED_CONTEXT((#817)) GLOBAL_UNIT_ASSIGNED_CONTEXT
((#814,#815,#816)) REPRESENTATION_CONTEXT('Context #1',
  '3D Context with UNIT and UNCERTAINTY') );
#814 = ( LENGTH_UNIT() NAMED_UNIT(*) SI_UNIT(.MILLI.,.METRE.) );
#815 = ( NAMED_UNIT(*) PLANE_ANGLE_UNIT() SI_UNIT($,.RADIAN.) );
#816 = ( NAMED_UNIT(*) SI_UNIT($,.STERADIAN.) SOLID_ANGLE_UNIT() );
#817 = UNCERTAINTY_MEASURE_WITH_UNIT(LENGTH_MEASURE(1.E-03),#814,
  'distance_accuracy_value','confusion accuracy');
#818 = CONTEXT_DEPENDENT_SHAPE_REPRESENTATION(#819,#821);
#819 = ( REPRESENTATION_RELATIONSHIP('','',#228,#205) 
REPRESENTATION_RELATIONSHIP_WITH_TRANSFORMATION(#820) 
SHAPE_REPRESENTATION_RELATIONSHIP() );
#820 = ITEM_DEFINED_TRANSFORMATION('','',#11,#206);
#821 = PRODUCT_DEFINITION_SHAPE('Placement','Placement of an item',#822
  );
#822 = NEXT_ASSEMBLY_USAGE_OCCURRENCE('2','Flexwire','',#200,#223,$);
#823 = PRODUCT_RELATED_PRODUCT_CATEGORY('part',$,(#225));
#824 = MECHANICAL_DESIGN_GEOMETRIC_PRESENTATION_REPRESENTATION('',(#825)
  ,#813);
#825 = STYLED_ITEM('color',(#826),#229);
#826 = PRESENTATION_STYLE_ASSIGNMENT((#827,#833));
#827 = SURFACE_STYLE_USAGE(.BOTH.,#828);
#828 = SURFACE_SIDE_STYLE('',(#829));
#829 = SURFACE_STYLE_FILL_AREA(#830);
#830 = FILL_AREA_STYLE('',(#831));
#831 = FILL_AREA_STYLE_COLOUR('',#832);
#832 = COLOUR_RGB('',0.913725491704,0.694117673655,9.803921802644E-02);
#833 = CURVE_STYLE('',#834,POSITIVE_LENGTH_MEASURE(0.1),#835);
#834 = DRAUGHTING_PRE_DEFINED_CURVE_FONT('continuous');
#835 = COLOUR_RGB('',9.803921802644E-02,9.803921802644E-02,
  9.803921802644E-02);
#836 = MECHANICAL_DESIGN_GEOMETRIC_PRESENTATION_REPRESENTATION('',(#837)
  ,#187);
#837 = STYLED_ITEM('color',(#838),#37);
#838 = PRESENTATION_STYLE_ASSIGNMENT((#839,#844));
#839 = SURFACE_STYLE_USAGE(.BOTH.,#840);
#840 = SURFACE_SIDE_STYLE('',(#841));
#841 = SURFACE_STYLE_FILL_AREA(#842);
#842 = FILL_AREA_STYLE('',(#843));
#843 = FILL_AREA_STYLE_COLOUR('',#835);
#844 = CURVE_STYLE('',#845,POSITIVE_LENGTH_MEASURE(0.1),#835);
#845 = DRAUGHTING_PRE_DEFINED_CURVE_FONT('continuous');
ENDSEC;
END-ISO-10303-21;
